<svg width="524" height="160" viewBox="0 0 524 160" fill="none" xmlns="http://www.w3.org/2000/svg">
<g clip-path="url(#clip0_5_17)">
<path fill-rule="evenodd" clip-rule="evenodd" d="M0 33.2064C0 33.3982 4.37692 41.9688 11.4819 55.689C13.115 58.8423 16.9694 66.3627 20.0475 72.4009C24.8242 81.7707 33.0895 97.6118 35.6729 102.348C36.0936 103.12 36.5582 103.751 36.7053 103.751C36.8523 103.751 37.3166 103.01 37.7366 102.104C38.1569 101.198 39.9514 97.7126 41.7247 94.358C43.4979 91.0035 46.5905 85.1536 48.5973 81.3584C50.8725 77.0551 52.3941 74.4988 52.6399 74.5658C52.8569 74.6251 56.4144 76.5164 60.5458 78.7687C64.6769 81.021 69.2914 83.5329 70.8 84.3507C72.4495 85.2448 73.7712 86.1743 74.1158 86.6823C74.4309 87.1468 76.5909 91.2299 78.9158 95.756C81.2407 100.282 83.2234 103.987 83.3218 103.99C83.5207 103.995 84.2818 102.563 93.6912 84.4773C97.2864 77.5669 100.604 71.1993 101.062 70.3271C101.521 69.455 102.401 67.7533 103.017 66.5456C103.632 65.338 105.072 62.5385 106.217 60.3244C116.716 40.0116 120 33.5555 120 33.2232C120 33.0991 117.887 33 115.237 33H110.473L108.94 35.9886C108.096 37.6322 105.514 42.7099 103.201 47.2721C100.887 51.8344 98.7998 55.8964 98.5608 56.299C98.1837 56.9352 95.64 61.8407 85.6077 81.2806C84.4029 83.6151 83.3328 85.4266 83.2293 85.3061C83.1261 85.1858 80.5437 80.3115 77.4905 74.4746C74.4374 68.6377 70.9423 61.9598 69.7234 59.6345C68.5046 57.3095 65.8865 52.2593 63.9058 48.412C61.9252 44.5648 60.1954 41.3388 60.0624 41.2432C59.9294 41.1478 58.0097 44.6061 55.7966 48.9282C49.271 61.6724 48.121 63.862 47.9541 63.862C47.867 63.862 43.4057 61.4748 38.0407 58.5569C32.6753 55.639 28.2086 53.254 28.1143 53.2564C28.02 53.2589 27.2486 53.9935 26.4 54.8891C25.5514 55.7844 24.409 56.8862 23.8611 57.3373L22.8648 58.1575L23.3469 58.482C23.6119 58.6603 28.4571 61.3603 34.1143 64.4817C39.7714 67.603 44.4521 70.1866 44.5159 70.223C44.6078 70.2752 38.8289 81.3633 37.0234 84.5993L36.6151 85.3312L36.2743 84.7213C36.0871 84.3858 34.0389 80.4335 31.7225 75.9384C29.4065 71.4433 27.0202 66.8623 26.4199 65.7586C25.8192 64.6549 25.3395 63.6936 25.3536 63.6227C25.3677 63.5514 24.9185 62.8437 24.3555 62.05L23.3314 60.6067L21.4371 59.554C20.3952 58.9748 19.5429 58.4337 19.5429 58.3515C19.5429 58.2693 20.0184 57.7347 20.5999 57.1638L21.6566 56.1255L18.5787 50.2351C16.8861 46.9952 14.653 42.6977 13.6166 40.685C12.5801 38.6723 11.2413 36.1196 10.6413 35.0127L9.55029 33H4.77497C2.14869 33 0 33.093 0 33.2064ZM12 33.1996C12 33.4784 16.7019 42.666 17.4542 43.8566C17.7933 44.3933 18.9655 46.6439 20.0595 48.8579C21.1533 51.072 22.3032 53.3123 22.6149 53.8366L23.1816 54.7898L25.1222 52.8193C26.1895 51.7353 27.2071 50.785 27.383 50.7077C27.5592 50.6301 28.7873 51.1705 30.1125 51.908C31.4373 52.6458 32.5982 53.2494 32.6921 53.2494C32.7857 53.2494 32.2368 52.1239 31.4719 50.7487C30.707 49.3734 28.5771 45.2289 26.7387 41.5389C24.9007 37.8489 23.1545 34.4182 22.8586 33.9149L22.3207 33H17.1603C14.3222 33 12 33.0898 12 33.1996ZM97.0135 33.9149C96.6809 34.6551 81.3093 64.9906 78.8259 69.807L78.1509 71.1166L80.5611 75.8301C81.8866 78.4227 82.9714 80.6824 82.9714 80.8515C82.9714 81.6319 83.7747 80.3789 85.8861 76.3044C89.0352 70.2281 90.3223 67.7528 94.1335 60.4464C99.6124 49.9419 107.62 34.2884 107.855 33.6233L108.074 33H102.749H97.4246L97.0135 33.9149ZM57.8287 63.801C56.7531 65.8472 55.8377 67.6167 55.7938 67.7328C55.7187 67.9319 67.1321 74.4531 67.5809 74.4678C67.6965 74.4714 67.2213 73.4592 66.5253 72.2179C65.8293 70.9766 64.115 67.7399 62.7158 65.025C61.3162 62.3101 60.084 60.0868 59.9774 60.0846C59.8708 60.0824 58.9039 61.7548 57.8287 63.801ZM27.4992 63.5238C27.5983 63.7098 29.6448 67.7045 32.0475 72.4009C34.4503 77.0973 36.4488 80.9654 36.4882 80.9969C36.5585 81.0525 41.4021 71.788 41.6839 71.0591C41.7785 70.8139 39.5455 69.4847 34.9207 67.0336C27.6977 63.2055 27.2064 62.973 27.4992 63.5238ZM56.6071 92.4319C49.7736 105.574 48.5194 107.877 48.2918 107.708C48.1615 107.611 46.956 105.291 45.6127 102.551C44.2694 99.8117 43.0491 97.4162 42.901 97.2281C42.7265 97.0063 41.7597 98.5892 40.1565 101.721L37.681 106.556L42.9261 116.726C45.8112 122.319 48.2846 126.817 48.4227 126.721C48.6799 126.542 58.753 107.205 59.4881 105.48L59.7387 104.891L60.0093 105.236C60.1581 105.425 62.4408 109.752 65.0822 114.851C67.7235 119.95 70.2257 124.77 70.643 125.561L71.4017 127L71.6877 126.636C71.8447 126.437 74.2903 121.817 77.122 116.372L82.2706 106.47L79.7925 101.818C78.4296 99.2589 77.2313 97.1651 77.1298 97.1646C77.0283 97.1641 75.8133 99.4967 74.4295 102.348C73.0457 105.199 71.8087 107.673 71.6805 107.844C71.5526 108.016 68.9876 103.418 65.9808 97.626C62.9743 91.8344 60.3456 86.9299 60.1399 86.7272L59.7651 86.3585L56.6071 92.4319Z" fill="#A2FF0E" fill-opacity="0.952941"/>
<path d="M131 109H117.84L139.36 49.04H152.88L174.36 109H161L147.84 66.92L146 60.04L144.12 66.92L131 109ZM130.04 96.4L131.68 87.48H158.96L160.6 96.4H130.04ZM177.261 79.44C177.261 74.4533 178.021 70.0667 179.541 66.28C181.061 62.4667 183.167 59.28 185.861 56.72C188.554 54.1333 191.661 52.1867 195.181 50.88C198.727 49.5733 202.514 48.92 206.541 48.92C209.394 48.92 211.781 49.08 213.701 49.4C215.647 49.6933 217.274 50.0267 218.581 50.4C219.914 50.7467 221.101 51.0267 222.141 51.24L220.461 62.12C219.954 61.8 219.181 61.3867 218.141 60.88C217.127 60.3467 215.741 59.88 213.981 59.48C212.247 59.0533 210.074 58.84 207.461 58.84C204.074 58.84 201.074 59.6267 198.461 61.2C195.847 62.7733 193.794 65.04 192.301 68C190.807 70.96 190.061 74.5333 190.061 78.72C190.061 82.9067 190.741 86.5867 192.101 89.76C193.487 92.9333 195.514 95.4267 198.181 97.24C200.847 99.0267 204.101 99.92 207.941 99.92C209.727 99.92 211.541 99.72 213.381 99.32C215.221 98.92 216.861 98.44 218.301 97.88C219.741 97.2933 220.807 96.72 221.501 96.16V106.52C220.434 106.947 219.207 107.4 217.821 107.88C216.434 108.36 214.834 108.773 213.021 109.12C211.234 109.467 209.154 109.64 206.781 109.64C200.594 109.64 195.301 108.4 190.901 105.92C186.501 103.413 183.127 99.8933 180.781 95.36C178.434 90.8267 177.261 85.52 177.261 79.44ZM233.427 109V49.56H269.707V59H245.907V73.92H263.947V83.16H245.907V99.36H272.227V109H233.427ZM308.601 109.52L292.721 49.56H305.321L312.801 84.8L315.401 102.44H313.921L316.801 84.8L325.881 49.56H336.681L346.001 84.8L349.281 102.52H347.601L350.161 84.8L357.281 49.56H369.521L353.961 109.52H341.641L332.681 75.48L329.161 53.84H332.601L329.361 75.48L320.401 109.52H308.601ZM377.836 109V49.56H414.116V59H390.316V73.92H408.356V83.16H390.316V99.36H416.636V109H377.836ZM428.274 109V49.48L434.314 49.56C435.647 49.56 437.007 49.52 438.394 49.44C439.78 49.3333 441.274 49.24 442.874 49.16C444.474 49.0533 446.274 49 448.274 49C453.367 49 457.5 49.6133 460.674 50.84C463.874 52.04 466.207 53.7467 467.674 55.96C469.14 58.1733 469.874 60.7867 469.874 63.8C469.874 65.8 469.54 67.7333 468.874 69.6C468.234 71.44 467.247 73.04 465.914 74.4C464.58 75.76 462.9 76.72 460.874 77.28C463.22 77.52 465.327 78.2667 467.194 79.52C469.06 80.7467 470.54 82.36 471.634 84.36C472.727 86.3333 473.274 88.56 473.274 91.04C473.274 94.6667 472.54 97.8667 471.074 100.64C469.634 103.413 467.14 105.6 463.594 107.2C460.074 108.773 455.167 109.56 448.874 109.56C446.314 109.56 443.674 109.48 440.954 109.32C438.26 109.187 436.127 109.08 434.554 109H428.274ZM440.714 74.24C441.194 74.32 441.767 74.3867 442.434 74.44C443.1 74.4667 443.794 74.4933 444.514 74.52C445.26 74.52 445.954 74.52 446.594 74.52C447.26 74.52 447.847 74.52 448.354 74.52C451.34 74.52 453.66 73.7867 455.314 72.32C456.994 70.8533 457.834 68.4533 457.834 65.12C457.834 62.4 456.874 60.4533 454.954 59.28C453.06 58.1067 450.314 57.52 446.714 57.52C446.314 57.52 445.687 57.5467 444.834 57.6C443.98 57.6267 443.154 57.68 442.354 57.76C441.554 57.8133 441.007 57.9067 440.714 58.04V74.24ZM440.714 100.2C441.087 100.44 441.754 100.627 442.714 100.76C443.7 100.893 444.754 100.987 445.874 101.04C446.994 101.093 447.994 101.12 448.874 101.12C452.66 101.12 455.554 100.4 457.554 98.96C459.554 97.4933 460.554 95.0133 460.554 91.52C460.554 88.5067 459.607 86.2667 457.714 84.8C455.847 83.3333 452.847 82.6 448.714 82.6C448.127 82.6 447.447 82.6 446.674 82.6C445.927 82.6 445.154 82.6133 444.354 82.64C443.58 82.6667 442.874 82.6933 442.234 82.72C441.594 82.7467 441.087 82.8 440.714 82.88V100.2ZM500.826 109.64C498.08 109.64 495.48 109.44 493.026 109.04C490.573 108.64 488.453 108.16 486.666 107.6C484.88 107.04 483.613 106.533 482.866 106.08L484.746 96.16C485.733 96.7467 487.026 97.3333 488.626 97.92C490.253 98.48 492.04 98.96 493.986 99.36C495.933 99.7333 497.893 99.92 499.866 99.92C503.04 99.92 505.4 99.4267 506.946 98.44C508.493 97.4533 509.266 95.8667 509.266 93.68C509.266 92.1333 508.84 90.84 507.986 89.8C507.133 88.7333 505.786 87.6933 503.946 86.68C502.133 85.6667 499.773 84.4667 496.866 83.08C494.386 81.88 492.053 80.4533 489.866 78.8C487.68 77.1467 485.906 75.1733 484.546 72.88C483.186 70.5867 482.506 67.9067 482.506 64.84C482.506 62.0667 483.04 59.68 484.106 57.68C485.2 55.6533 486.693 54 488.586 52.72C490.48 51.4133 492.666 50.4533 495.146 49.84C497.653 49.2267 500.333 48.92 503.186 48.92C507.293 48.92 510.666 49.3067 513.306 50.08C515.946 50.8533 517.786 51.5733 518.826 52.24L516.706 61.76C515.453 60.8533 513.72 60.04 511.506 59.32C509.293 58.5733 506.76 58.2 503.906 58.2C502.013 58.2 500.36 58.4267 498.946 58.88C497.56 59.3333 496.48 60 495.706 60.88C494.933 61.7333 494.546 62.7867 494.546 64.04C494.546 65.5333 494.906 66.8133 495.626 67.88C496.373 68.92 497.546 69.9333 499.146 70.92C500.746 71.88 502.826 72.9867 505.386 74.24C507.706 75.3333 509.853 76.48 511.826 77.68C513.8 78.8533 515.533 80.1467 517.026 81.56C518.52 82.9733 519.68 84.5867 520.506 86.4C521.333 88.2133 521.746 90.2933 521.746 92.64C521.746 96.2133 520.906 99.28 519.226 101.84C517.546 104.373 515.133 106.307 511.986 107.64C508.866 108.973 505.146 109.64 500.826 109.64Z" fill="#A2FF0E" fill-opacity="0.952941"/>
</g>
<defs>
<clipPath id="clip0_5_17">
<rect width="524" height="160" fill="white"/>
</clipPath>
</defs>
</svg>
